<svg viewBox="0 0 1000 640" xmlns="http://www.w3.org/2000/svg" font-family="'Segoe UI',system-ui,sans-serif">
<defs>
  <linearGradient id="hg" x1="0%" y1="0%" x2="100%" y2="0%"><stop offset="0%" stop-color="#4f46e5"/><stop offset="50%" stop-color="#7c3aed"/><stop offset="100%" stop-color="#a855f7"/></linearGradient>
  <linearGradient id="ag" x1="0%" y1="0%" x2="100%" y2="100%"><stop offset="0%" stop-color="#4f46e5"/><stop offset="100%" stop-color="#7c3aed"/></linearGradient>
  <filter id="sh"><feDropShadow dx="0" dy="2" stdDeviation="5" flood-color="#000" flood-opacity="0.06"/></filter>
</defs>

<rect width="1000" height="640" fill="#f1f5f9"/>

<!-- Header -->
<rect width="1000" height="68" fill="url(#hg)"/>
<rect x="18" y="11" width="46" height="46" rx="13" fill="rgba(255,255,255,0.18)"/>
<text x="41" y="42" text-anchor="middle" font-size="22" fill="#f59e0b">⚡</text>
<text x="74" y="34" font-size="17" font-weight="800" fill="white">FastMessenger</text>
<text x="74" y="50" font-size="9" fill="rgba(255,255,255,0.65)" letter-spacing="0.8">CONNECT &amp; CHAT</text>
<rect x="852" y="16" width="132" height="36" rx="18" fill="rgba(255,255,255,0.14)" stroke="rgba(255,255,255,0.2)" stroke-width="1"/>
<circle cx="876" cy="34" r="13" fill="url(#ag)"/>
<text x="876" y="39" text-anchor="middle" font-size="12" font-weight="700" fill="white">M</text>
<text x="893" y="31" font-size="12" font-weight="700" fill="white">MyUser</text>
<text x="893" y="44" font-size="9" fill="rgba(255,255,255,0.7)">● Online</text>

<!-- Tab Bar -->
<rect y="68" width="1000" height="48" fill="white" filter="url(#sh)"/>
<text x="83" y="97" text-anchor="middle" font-size="11" font-weight="600" fill="#64748b">⌂  Home</text>
<text x="233" y="97" text-anchor="middle" font-size="11" font-weight="700" fill="#4f46e5">♥  Friends</text>
<rect x="193" y="113" width="80" height="3" rx="2" fill="#4f46e5"/>
<text x="383" y="97" text-anchor="middle" font-size="11" font-weight="600" fill="#64748b">👥  Members</text>
<text x="533" y="97" text-anchor="middle" font-size="11" font-weight="600" fill="#64748b">✉  Messages</text>
<text x="683" y="97" text-anchor="middle" font-size="11" font-weight="600" fill="#64748b">👤  Profile</text>
<text x="820" y="97" text-anchor="middle" font-size="11" font-weight="600" fill="#64748b">⇥  Logout</text>

<!-- Page title -->
<text x="24" y="143" font-size="18" font-weight="700" fill="#1e293b">Your Friends</text>
<rect x="24" y="148" width="110" height="3" rx="2" fill="#4f46e5"/>

<!-- ── Mutual Friends Section ── -->
<text x="24" y="175" font-size="13" font-weight="700" fill="#3730a3">⇄  Mutual Friends</text>

<rect x="16" y="184" width="968" height="64" rx="12" fill="white" filter="url(#sh)"/>
<circle cx="52" cy="216" r="22" fill="url(#ag)"/>
<text x="52" y="222" text-anchor="middle" font-size="14" font-weight="700" fill="white">A</text>
<text x="84" y="212" font-size="14" font-weight="600" fill="#1e293b">alice</text>
<rect x="140" y="201" width="54" height="20" rx="10" fill="#4f46e5"/>
<text x="167" y="215" text-anchor="middle" font-size="10" font-weight="700" fill="white">Mutual</text>
<rect x="858" y="201" width="110" height="32" rx="8" fill="none" stroke="#ef4444" stroke-width="1.5"/>
<text x="913" y="222" text-anchor="middle" font-size="12" font-weight="500" fill="#ef4444">👤 Remove</text>

<rect x="16" y="256" width="968" height="64" rx="12" fill="white" filter="url(#sh)"/>
<circle cx="52" cy="288" r="22" fill="url(#ag)"/>
<text x="52" y="294" text-anchor="middle" font-size="14" font-weight="700" fill="white">B</text>
<text x="84" y="284" font-size="14" font-weight="600" fill="#1e293b">bob123</text>
<rect x="140" y="273" width="54" height="20" rx="10" fill="#4f46e5"/>
<text x="167" y="287" text-anchor="middle" font-size="10" font-weight="700" fill="white">Mutual</text>
<rect x="858" y="273" width="110" height="32" rx="8" fill="none" stroke="#ef4444" stroke-width="1.5"/>
<text x="913" y="294" text-anchor="middle" font-size="12" font-weight="500" fill="#ef4444">👤 Remove</text>

<!-- ── Your Followers Section ── -->
<text x="24" y="347" font-size="13" font-weight="700" fill="#0369a1">👤  Your Followers</text>
<text x="24" y="362" font-size="11" fill="#64748b">People who follow you.</text>

<rect x="16" y="370" width="968" height="64" rx="12" fill="white" filter="url(#sh)"/>
<circle cx="52" cy="402" r="22" fill="url(#ag)"/>
<text x="52" y="408" text-anchor="middle" font-size="14" font-weight="700" fill="white">C</text>
<text x="84" y="398" font-size="14" font-weight="600" fill="#1e293b">charlie</text>
<rect x="140" y="387" width="76" height="20" rx="10" fill="#0ea5e9"/>
<text x="178" y="401" text-anchor="middle" font-size="10" font-weight="700" fill="white">Follows You</text>

<!-- ── Following Section ── -->
<text x="24" y="458" font-size="13" font-weight="700" fill="#92400e">👤  You are Following</text>
<text x="24" y="473" font-size="11" fill="#64748b">People you follow who haven't followed back.</text>

<rect x="16" y="481" width="968" height="64" rx="12" fill="white" filter="url(#sh)"/>
<circle cx="52" cy="513" r="22" fill="url(#ag)"/>
<text x="52" y="519" text-anchor="middle" font-size="14" font-weight="700" fill="white">D</text>
<text x="84" y="509" font-size="14" font-weight="600" fill="#1e293b">diana99</text>
<rect x="140" y="498" width="68" height="20" rx="10" fill="#f59e0b"/>
<text x="174" y="512" text-anchor="middle" font-size="10" font-weight="700" fill="white">Following</text>
<rect x="858" y="498" width="110" height="32" rx="8" fill="none" stroke="#ef4444" stroke-width="1.5"/>
<text x="913" y="519" text-anchor="middle" font-size="12" font-weight="500" fill="#ef4444">👤 Remove</text>

<rect x="16" y="553" width="968" height="64" rx="12" fill="white" filter="url(#sh)"/>
<circle cx="52" cy="585" r="22" fill="url(#ag)"/>
<text x="52" y="591" text-anchor="middle" font-size="14" font-weight="700" fill="white">E</text>
<text x="84" y="581" font-size="14" font-weight="600" fill="#1e293b">evan</text>
<rect x="140" y="570" width="68" height="20" rx="10" fill="#f59e0b"/>
<text x="174" y="584" text-anchor="middle" font-size="10" font-weight="700" fill="white">Following</text>
<rect x="858" y="570" width="110" height="32" rx="8" fill="none" stroke="#ef4444" stroke-width="1.5"/>
<text x="913" y="591" text-anchor="middle" font-size="12" font-weight="500" fill="#ef4444">👤 Remove</text>
</svg>
