<svg viewBox="0 0 1000 620" xmlns="http://www.w3.org/2000/svg" font-family="'Segoe UI',system-ui,sans-serif">
<defs>
  <linearGradient id="hg" x1="0%" y1="0%" x2="100%" y2="0%"><stop offset="0%" stop-color="#4f46e5"/><stop offset="50%" stop-color="#7c3aed"/><stop offset="100%" stop-color="#a855f7"/></linearGradient>
  <linearGradient id="ag" x1="0%" y1="0%" x2="100%" y2="100%"><stop offset="0%" stop-color="#4f46e5"/><stop offset="100%" stop-color="#7c3aed"/></linearGradient>
  <filter id="sh"><feDropShadow dx="0" dy="2" stdDeviation="5" flood-color="#000" flood-opacity="0.06"/></filter>
</defs>

<rect width="1000" height="620" fill="#f1f5f9"/>

<!-- Header -->
<rect width="1000" height="68" fill="url(#hg)"/>
<rect x="18" y="11" width="46" height="46" rx="13" fill="rgba(255,255,255,0.18)"/>
<text x="41" y="42" text-anchor="middle" font-size="22" fill="#f59e0b">⚡</text>
<text x="74" y="34" font-size="17" font-weight="800" fill="white">FastMessenger</text>
<text x="74" y="50" font-size="9" fill="rgba(255,255,255,0.65)" letter-spacing="0.8">CONNECT &amp; CHAT</text>
<rect x="852" y="16" width="132" height="36" rx="18" fill="rgba(255,255,255,0.14)" stroke="rgba(255,255,255,0.2)" stroke-width="1"/>
<circle cx="876" cy="34" r="13" fill="url(#ag)"/>
<text x="876" y="39" text-anchor="middle" font-size="12" font-weight="700" fill="white">M</text>
<text x="893" y="31" font-size="12" font-weight="700" fill="white">MyUser</text>
<text x="893" y="44" font-size="9" fill="rgba(255,255,255,0.7)">● Online</text>

<!-- Tab Bar -->
<rect y="68" width="1000" height="48" fill="white" filter="url(#sh)"/>
<text x="83" y="97" text-anchor="middle" font-size="11" font-weight="600" fill="#64748b">⌂  Home</text>
<text x="233" y="97" text-anchor="middle" font-size="11" font-weight="600" fill="#64748b">♥  Friends</text>
<text x="383" y="97" text-anchor="middle" font-size="11" font-weight="700" fill="#4f46e5">👥  Members</text>
<rect x="343" y="113" width="80" height="3" rx="2" fill="#4f46e5"/>
<text x="533" y="97" text-anchor="middle" font-size="11" font-weight="600" fill="#64748b">✉  Messages</text>
<text x="683" y="97" text-anchor="middle" font-size="11" font-weight="600" fill="#64748b">👤  Profile</text>
<text x="820" y="97" text-anchor="middle" font-size="11" font-weight="600" fill="#64748b">⇥  Logout</text>

<!-- Page title -->
<text x="24" y="143" font-size="18" font-weight="700" fill="#1e293b">Members</text>
<rect x="24" y="148" width="78" height="3" rx="2" fill="#4f46e5"/>

<!-- Member card 1 – Mutual -->
<rect x="16" y="158" width="968" height="64" rx="12" fill="white" filter="url(#sh)"/>
<circle cx="52" cy="190" r="22" fill="url(#ag)"/>
<text x="52" y="196" text-anchor="middle" font-size="14" font-weight="700" fill="white">A</text>
<text x="84" y="186" font-size="14" font-weight="600" fill="#1e293b">alice</text>
<rect x="142" y="175" width="98" height="20" rx="10" fill="#4f46e5"/>
<text x="191" y="189" text-anchor="middle" font-size="10" font-weight="700" fill="white">Mutual Friend</text>
<rect x="858" y="175" width="110" height="32" rx="8" fill="none" stroke="#ef4444" stroke-width="1.5"/>
<text x="913" y="196" text-anchor="middle" font-size="12" font-weight="500" fill="#ef4444">👤 Unfollow</text>

<!-- Member card 2 – Following -->
<rect x="16" y="232" width="968" height="64" rx="12" fill="white" filter="url(#sh)"/>
<circle cx="52" cy="264" r="22" fill="url(#ag)"/>
<text x="52" y="270" text-anchor="middle" font-size="14" font-weight="700" fill="white">B</text>
<text x="84" y="260" font-size="14" font-weight="600" fill="#1e293b">bob123</text>
<rect x="148" y="249" width="76" height="20" rx="10" fill="#0ea5e9"/>
<text x="186" y="263" text-anchor="middle" font-size="10" font-weight="700" fill="white">Following</text>
<rect x="858" y="249" width="110" height="32" rx="8" fill="none" stroke="#ef4444" stroke-width="1.5"/>
<text x="913" y="270" text-anchor="middle" font-size="12" font-weight="500" fill="#ef4444">👤 Unfollow</text>

<!-- Member card 3 – Follows You -->
<rect x="16" y="306" width="968" height="64" rx="12" fill="white" filter="url(#sh)"/>
<circle cx="52" cy="338" r="22" fill="url(#ag)"/>
<text x="52" y="344" text-anchor="middle" font-size="14" font-weight="700" fill="white">C</text>
<text x="84" y="334" font-size="14" font-weight="600" fill="#1e293b">charlie</text>
<rect x="148" y="323" width="82" height="20" rx="10" fill="#f59e0b"/>
<text x="189" y="337" text-anchor="middle" font-size="10" font-weight="700" fill="white">Follows You</text>
<rect x="858" y="323" width="110" height="32" rx="8" fill="none" stroke="#4f46e5" stroke-width="1.5"/>
<text x="913" y="344" text-anchor="middle" font-size="12" font-weight="500" fill="#4f46e5">👤 Follow Back</text>

<!-- Member card 4 – No relation -->
<rect x="16" y="380" width="968" height="64" rx="12" fill="white" filter="url(#sh)"/>
<circle cx="52" cy="412" r="22" fill="url(#ag)"/>
<text x="52" y="418" text-anchor="middle" font-size="14" font-weight="700" fill="white">D</text>
<text x="84" y="408" font-size="14" font-weight="600" fill="#1e293b">diana99</text>
<rect x="858" y="397" width="110" height="32" rx="8" fill="none" stroke="#4f46e5" stroke-width="1.5"/>
<text x="913" y="418" text-anchor="middle" font-size="12" font-weight="500" fill="#4f46e5">👤 Follow</text>

<!-- Member card 5 – No relation -->
<rect x="16" y="454" width="968" height="64" rx="12" fill="white" filter="url(#sh)"/>
<circle cx="52" cy="486" r="22" fill="url(#ag)"/>
<text x="52" y="492" text-anchor="middle" font-size="14" font-weight="700" fill="white">E</text>
<text x="84" y="482" font-size="14" font-weight="600" fill="#1e293b">evan</text>
<rect x="858" y="471" width="110" height="32" rx="8" fill="none" stroke="#4f46e5" stroke-width="1.5"/>
<text x="913" y="492" text-anchor="middle" font-size="12" font-weight="500" fill="#4f46e5">👤 Follow</text>

<!-- Member card 6 – No relation -->
<rect x="16" y="528" width="968" height="64" rx="12" fill="white" filter="url(#sh)"/>
<circle cx="52" cy="560" r="22" fill="url(#ag)"/>
<text x="52" y="566" text-anchor="middle" font-size="14" font-weight="700" fill="white">F</text>
<text x="84" y="556" font-size="14" font-weight="600" fill="#1e293b">fiona</text>
<rect x="858" y="545" width="110" height="32" rx="8" fill="none" stroke="#4f46e5" stroke-width="1.5"/>
<text x="913" y="566" text-anchor="middle" font-size="12" font-weight="500" fill="#4f46e5">👤 Follow</text>
</svg>
